# xmcd
#
# Track frame offsets: 
#        150
#        16872
#        34785
#        56675
#        75705
#        96800
#        114045
#        126585
#        144010
#        163930
#        181717
#        198597
#
# Disc length: 2878 seconds
#
# Revision: 0
# Processed by: cddbd v1.5.1PL0 Copyright (c) Steve Scherf et al.
# Submitted via: ExactAudioCopy v0.95a4
#
DISCID=950b3c0c
DTITLE=Billy Gilman - Everything And More
DYEAR=2005
DGENRE=Country
TTITLE0=Hey, Little Suzie (The Cause Of All That)
TTITLE1=Everything And More
TTITLE2=Peaceable Kingdom
TTITLE3=Coming Home
TTITLE4=Is Anybody Out There
TTITLE5=Looked Into The Wings
TTITLE6=Three Words, Two Hearts, One Kiss
TTITLE7=Pray For Him
TTITLE8=I'm Not Me Anymore
TTITLE9=Missed You On Sunday
TTITLE10=Something 'Bout Heaven
TTITLE11=Awaken The Music
EXTD=
EXTT0=
EXTT1=
EXTT2=
EXTT3=
EXTT4=
EXTT5=
EXTT6=
EXTT7=
EXTT8=
EXTT9=
EXTT10=
EXTT11=
PLAYORDER=
